<svg xmlns="http://www.w3.org/2000/svg" width="130" height="130" viewBox="0 0 130 130">
  <g id="Group_284" data-name="Group 284" transform="translate(-1199.25 -3119)">
    <g id="Ellipse_3" data-name="Ellipse 3" transform="translate(1199.25 3119)" fill="#fff" stroke="#3d3d3d" stroke-width="2">
      <circle cx="65" cy="65" r="65" stroke="none"/>
      <circle cx="65" cy="65" r="64" fill="none"/>
    </g>
    <path id="iconmonstr-gear-11" d="M46.991,27.661v-6.33c-3.234-1.153-5.271-1.473-6.3-3.956s.193-4.179,1.659-7.256L37.875,5.644C34.82,7.1,33.112,8.336,30.616,7.3S27.8,4.218,26.661,1h-6.33c-1.139,3.2-1.465,5.271-3.956,6.3h0C13.884,8.336,12.2,7.109,9.116,5.644l-4.47,4.475c1.457,3.068,2.69,4.765,1.659,7.256S3.2,20.192,0,21.331v6.327c3.193,1.139,5.271,1.468,6.3,3.956,1.039,2.51-.224,4.24-1.659,7.256l4.472,4.475c3.06-1.451,4.765-2.692,7.256-1.659h0c2.488,1.031,2.814,3.09,3.956,6.3h6.327c1.139-3.2,1.465-5.266,3.972-6.308h0c2.471-1.028,4.149.2,7.239,1.664l4.472-4.475c-1.451-3.06-2.692-4.763-1.661-7.256S43.8,28.8,46.991,27.661ZM23.5,32.329A7.834,7.834,0,1,1,31.326,24.5,7.834,7.834,0,0,1,23.5,32.329ZM66.34,43.953V40.976c-1.52-.542-2.479-.694-2.966-1.86s.091-1.965.78-3.417l-2.106-2.106c-1.437.686-2.242,1.266-3.414.782s-1.324-1.451-1.863-2.966H53.8c-.536,1.506-.691,2.479-1.863,2.966s-1.965-.091-3.414-.782L46.413,35.7c.686,1.446,1.266,2.245.779,3.417s-1.459,1.324-2.966,1.86v2.977c1.5.533,2.479.691,2.966,1.86s-.105,2-.779,3.417l2.106,2.106c1.44-.686,2.245-1.266,3.414-.782s1.324,1.454,1.863,2.966h2.974c.536-1.506.691-2.479,1.869-2.969h0c1.164-.484,1.952.094,3.405.785l2.106-2.106c-.683-1.44-1.266-2.245-.78-3.414s1.462-1.33,2.966-1.863ZM55.284,46.147a3.685,3.685,0,1,1,3.685-3.685A3.685,3.685,0,0,1,55.284,46.147ZM44.227,54.636V52.4c-1.139-.406-1.86-.52-2.225-1.4s.066-1.473.586-2.562l-1.581-1.578c-1.075.514-1.678.951-2.56.586s-.992-1.089-1.4-2.225H34.818c-.4,1.131-.52,1.86-1.4,2.225s-1.473-.066-2.56-.586l-1.581,1.578c.517,1.086.951,1.683.586,2.562S28.77,52,27.639,52.4v2.233c1.128.4,1.86.52,2.225,1.4s-.077,1.5-.586,2.562l1.581,1.578c1.078-.514,1.681-.951,2.56-.586s.992,1.092,1.4,2.225h2.231c.4-1.131.52-1.86,1.4-2.225h0c.871-.362,1.462.069,2.554.589L42.588,58.6c-.514-1.081-.951-1.683-.586-2.562s1.1-1,2.225-1.4Zm-8.293,1.647A2.764,2.764,0,1,1,38.7,53.519,2.763,2.763,0,0,1,35.934,56.284Z" transform="translate(1232.08 3152.594)"/>
  </g>
</svg>
