<svg xmlns="http://www.w3.org/2000/svg" width="145" height="145" viewBox="0 0 145 145">
  <g id="Group_267" data-name="Group 267" transform="translate(-389 -1471.5)">
    <g id="Ellipse_8" data-name="Ellipse 8" transform="translate(389 1471.5)" fill="none" stroke="#000" stroke-width="2">
      <circle cx="72.5" cy="72.5" r="72.5" stroke="none"/>
      <circle cx="72.5" cy="72.5" r="71.5" fill="none"/>
    </g>
    <path id="iconmonstr-speech-bubble-26" d="M33.18,7.643c14.636,0,26.544,9.453,26.544,21.069,0,10.07-10.05,20.94-26.3,20.94a47.364,47.364,0,0,1-12.336-1.861,33.331,33.331,0,0,1-9.974,4.556,28.794,28.794,0,0,0,1.1-10.565c-2.777-3.321-5.581-6.865-5.581-13.07C6.636,17.1,18.544,7.643,33.18,7.643ZM33.18,1C15.658,1,0,12.7,0,28.712A24.442,24.442,0,0,0,5.657,44.29C5.813,49.357,2.834,56.627.146,61.916c7.193-1.3,17.426-4.174,22.062-7.018a47.166,47.166,0,0,0,11.222,1.4c19.586,0,32.931-13.4,32.931-27.583C66.361,12.613,50.6,1,33.18,1ZM71.454,38.076a30.621,30.621,0,0,1-1.994,4.7c5.564,4.187,7.489,10.7,1.54,17.8a19.234,19.234,0,0,0,.458,6.188,19.754,19.754,0,0,1-5.525-2.7c-7.057,1.722-14.151,2.309-20.2-2.837a44.736,44.736,0,0,1-5.773,1.208c5.02,6.228,14.261,9.612,25.141,6.968,3.033,1.861,9.732,3.739,14.44,4.6-1.759-3.467-3.706-8.225-3.61-11.543,5.823-6.961,5.12-18.037-4.473-24.381ZM21.567,25.59a3.554,3.554,0,1,0,3.554,3.554A3.554,3.554,0,0,0,21.567,25.59Zm11.613,0a3.554,3.554,0,1,0,3.554,3.554A3.554,3.554,0,0,0,33.18,25.59Zm11.613,0a3.554,3.554,0,1,0,3.554,3.554A3.554,3.554,0,0,0,44.793,25.59Z" transform="translate(420.682 1503.5)"/>
  </g>
</svg>
