<svg xmlns="http://www.w3.org/2000/svg" width="145" height="145" viewBox="0 0 145 145">
  <g id="Group_268" data-name="Group 268" transform="translate(-389 -1258.5)">
    <g id="Ellipse_11" data-name="Ellipse 11" transform="translate(389 1258.5)" fill="none" stroke="#000" stroke-width="2">
      <circle cx="72.5" cy="72.5" r="72.5" stroke="none"/>
      <circle cx="72.5" cy="72.5" r="71.5" fill="none"/>
    </g>
    <path id="iconmonstr-idea-14" d="M54.713,89.569h-2a2.105,2.105,0,0,1-1.379-.488l-2.656-1.751H58.752l-2.66,1.751A2.088,2.088,0,0,1,54.713,89.569ZM6.283,85.816H0a8.957,8.957,0,0,1,8.957-8.957h8.957a8.96,8.96,0,0,1,8.957,8.957H20.587c-.878-2.714-3.381-3.251-7.152-3.251s-6.27.515-7.152,3.251Zm52.563-.726H48.64a1.12,1.12,0,1,1,0-2.239H58.847a1.12,1.12,0,1,1,0,2.239Zm28.048,0H80.612a8.954,8.954,0,0,1,8.957-8.957h8.957a8.96,8.96,0,0,1,8.957,8.957H101.2c-.878-2.714-3.381-3.251-7.152-3.251S87.777,82.354,86.895,85.09ZM52.922,80.674H46.589c-.058-11.51-6.283-12.889-6.283-20.811,0-7.591,5.943-12.772,13.435-12.772h.09c7.448.04,13.346,5.208,13.346,12.772,0,7.922-6.229,9.3-6.288,20.811H54.556c0-12.248,5.9-16.185,5.9-20.829,0-3.834-3.108-5.97-6.718-6.037h-.085c-3.574.1-6.633,2.235-6.633,6.037C47.023,64.489,52.922,68.426,52.922,80.674ZM13.435,54.467A10.076,10.076,0,1,1,3.359,64.543,10.08,10.08,0,0,1,13.435,54.467Zm80.612-.726A10.076,10.076,0,1,1,83.971,63.818,10.08,10.08,0,0,1,94.047,53.741ZM71.073,64.427l6.041,2.741-1.85,4.075L69.451,68.61a22.041,22.041,0,0,0,1.621-4.183Zm-34.659,0a21.249,21.249,0,0,0,1.612,4.187l-5.8,2.633-1.854-4.075Zm-22.979-3.91A4.031,4.031,0,1,1,9.4,64.543,4.031,4.031,0,0,1,13.435,60.513Zm80.612-.726a4.031,4.031,0,1,1-4.031,4.031A4.031,4.031,0,0,1,94.047,59.787Zm-15.675.672H71.65a18.128,18.128,0,0,0-.416-4.478h7.139Zm-42.536,0H29.11V55.98h7.139a18.27,18.27,0,0,0-.412,4.469ZM67.275,48.3l5.562-3.95,2.593,3.654-5.607,3.977A16.242,16.242,0,0,0,67.275,48.3Zm-27.068,0a16.473,16.473,0,0,0-2.548,3.686l-5.6-3.977,2.589-3.654Zm19.862-4.684,2.969-6.023,4.017,1.984L64.082,45.6A18.2,18.2,0,0,0,60.069,43.615Zm-12.656,0A18.209,18.209,0,0,0,43.4,45.59l-2.969-6.015,4.017-1.984Zm8.567-.927a18.72,18.72,0,0,0-4.478-.009V35.827H55.98ZM46.589,31.349H40.306a8.954,8.954,0,0,1,8.957-8.957H58.22a8.96,8.96,0,0,1,8.957,8.957H60.893c-.878-2.714-3.381-3.251-7.152-3.251S47.471,28.613,46.589,31.349ZM53.741,0A10.076,10.076,0,1,1,43.665,10.076,10.08,10.08,0,0,1,53.741,0Zm0,6.046a4.031,4.031,0,1,1-4.031,4.031A4.031,4.031,0,0,1,53.741,6.046Z" transform="translate(408 1278.132)" fill-rule="evenodd"/>
  </g>
</svg>
